<?xml version="1.0" encoding="UTF-8"?>
<!DOCTYPE svg PUBLIC "-//W3C//DTD SVG 1.1//EN" "http://www.w3.org/Graphics/SVG/1.1/DTD/svg11.dtd">
<!-- Creator: CorelDRAW -->
<svg xmlns="http://www.w3.org/2000/svg" xml:space="preserve" width="6.82666in" height="6.82666in" style="shape-rendering:geometricPrecision; text-rendering:geometricPrecision; image-rendering:optimizeQuality; fill-rule:evenodd; clip-rule:evenodd"
viewBox="0 0 6.82666 6.82666"
 xmlns:xlink="http://www.w3.org/1999/xlink">
 <defs>
  <style type="text/css">
   <![CDATA[
    .fil14 {fill:none}
    .fil9 {fill:#135BAD}
    .fil8 {fill:#1565C0}
    .fil5 {fill:#90A4AE}
    .fil2 {fill:#B0BEC5}
    .fil4 {fill:#D84315}
    .fil3 {fill:#E64A19}
    .fil11 {fill:#E69A00}
    .fil13 {fill:#E6C047}
    .fil7 {fill:#E6E6E5}
    .fil10 {fill:#FFAB00}
    .fil12 {fill:#FFD54F}
    .fil6 {fill:#FFFFFE}
    .fil1 {fill:#212121;fill-rule:nonzero}
    .fil0 {fill:#E64A19;fill-rule:nonzero}
   ]]>
  </style>
 </defs>
 <g id="Layer_x0020_1">
  <metadata id="CorelCorpID_0Corel-Layer"/>
  <g id="_311096456">
   <polygon id="_311098736" class="fil0" points="4.95039,5.78992 4.67224,4.63355 4.23659,4.37764 4.18737,4.34874 4.18737,4.32727 2.63928,4.32727 2.63927,4.34874 2.59006,4.37764 2.1544,4.63354 1.87628,5.78992 2.61122,5.78992 2.61122,5.1585 2.61122,5.05836 2.71127,5.05836 3.11959,5.05836 3.21963,5.05836 3.60695,5.05836 3.707,5.05836 4.11537,5.05836 4.21542,5.05836 4.21542,5.1585 4.21542,5.78992 "/>
   <path id="_311099000" class="fil1" d="M4.82152 5.62134c0.000145669,0.000732283 0.00026378,0.00134646 0.000125984,0.000606299 -1.1811e-005,-5.11811e-005 0,-5.11811e-005 1.9685e-005,-3.93701e-006l3.93701e-005 -7.87402e-006 -0.000185039 -0.000594488z"/>
   <polygon id="_311098832" class="fil1" points="4.82191,5.62259 4.82191,5.62257 4.8217,5.62194 4.82166,5.62194 "/>
   <path id="_311098880" class="fil1" d="M2.00506 5.62142l-0.00030315 0.00124409 0 0.000358268c-0.000362205,0.00150394 0.000204724,-0.000704724 0.000448819,-0.00145669l-1.5748e-005 -0.000129921 -0.000129921 -1.5748e-005z"/>
   <polygon id="_311098952" class="fil1" points="2.00515,5.621 2.00506,5.62142 2.00519,5.62143 "/>
   <polygon id="_311099168" class="fil1" points="2.25834,4.553 2.25826,4.55304 2.25828,4.55308 "/>
   <g>
    <rect id="_311098232" class="fil2" x="2.63654" y="1.95031" width="1.55406" height="3.10812"/>
    <polygon id="_311098136" class="fil3" points="2.63654,1.95031 4.19059,1.95031 3.41357,0.853331 "/>
    <polygon id="_311098112" class="fil4" points="3.41357,1.95031 4.19059,1.95031 3.41357,0.853331 "/>
    <polygon id="_311098016" class="fil5" points="3.41357,1.95031 4.19059,1.95031 4.19059,5.05843 3.41357,5.05843 "/>
    <circle id="_311097896" class="fil6" cx="3.41357" cy="3.00159" r="0.502785"/>
    <path id="_311098520" class="fil7" d="M3.41357 2.4988c0.277685,0 0.502783,0.225102 0.502783,0.502783 0,0.277685 -0.225098,0.502787 -0.502783,0.502787l0 -1.00557z"/>
    <circle id="_311097176" class="fil8" cx="3.41357" cy="3.00159" r="0.349065"/>
    <path id="_311097848" class="fil9" d="M3.41357 2.65252c0.192783,0 0.349067,0.15628 0.349067,0.349063 0,0.192787 -0.156283,0.349067 -0.349067,0.349067l0 -0.69813z"/>
   </g>
   <g>
    <path id="_311097608" class="fil10" d="M3.39883 5.05895l-0.261252 0c0,0 -0.457197,0.457189 0.261252,0.914382 0.718445,-0.457193 0.261252,-0.914382 0.261252,-0.914382l-0.261252 0z"/>
    <path id="_311097824" class="fil10" d="M3.39883 5.05895l-0.261252 0c0,0 -0.457197,0.457189 0.261252,0.914382 0.718445,-0.457193 0.261252,-0.914382 0.261252,-0.914382l-0.261252 0z"/>
    <path id="_311097320" class="fil11" d="M3.39894 5.97325c0.718272,-0.457169 0.261134,-0.914303 0.261134,-0.914303l-0.261059 0c-1.9685e-005,0.00194882 -7.48031e-005,0.00388976 -7.48031e-005,0.00584646l0 0.908457z"/>
    <path id="_311096480" class="fil12" d="M3.39883 5.05895l-0.14061 0c0,0 -0.246071,0.246067 0.14061,0.492138 0.386677,-0.246071 0.14061,-0.492138 0.14061,-0.492138l-0.14061 0z"/>
    <path id="_311096768" class="fil13" d="M3.39894 5.55101c0.386508,-0.246043 0.140488,-0.492059 0.140488,-0.492059l-0.140413 0c-1.9685e-005,0.00194882 -7.48031e-005,0.00388976 -7.48031e-005,0.00584646l0 0.486213z"/>
   </g>
  </g>
 </g>
 <rect class="fil14" width="6.82666" height="6.82666"/>
</svg>
